<svg xmlns="http://www.w3.org/2000/svg" width="32" height="32" viewBox="0 0 32 32">
  <path fill-rule="evenodd" d="M30.3458,7.6988 L29.7308,8.3138 L23.6628,2.2408 L24.2768,1.6258 C25.1228,0.7798 26.5978,0.7798 27.4418,1.6258 L30.3458,4.5318 C31.2168,5.4048 31.2168,6.8258 30.3458,7.6988 Z M2.9878,23.0748 L8.9168,29.0098 L1.1708,30.8278 L2.9878,23.0748 Z M9.6928,28.3698 L3.6268,22.2988 L21.0198,4.8868 L27.0718,10.9758 L9.6928,28.3698 Z M27.7788,10.2678 L21.7268,4.1788 L22.9558,2.9478 L29.0238,9.0218 L27.7788,10.2678 Z M31.0528,3.8238 L28.1488,0.9178 C26.9278,-0.3062 24.7938,-0.3062 23.5698,0.9178 L20.6678,3.8228 L2.5728,21.9388 C2.5708,21.9418 2.5678,21.9418 2.5658,21.9438 C2.5638,21.9458 2.5628,21.9488 2.5608,21.9508 L2.2218,22.2898 C2.1568,22.3558 2.1108,22.4388 2.0888,22.5298 L0.0128,31.3848 C-0.0262,31.5538 0.0238,31.7308 0.1468,31.8538 C0.2408,31.9478 0.3688,31.9998 0.4998,31.9998 C0.5378,31.9998 0.5758,31.9958 0.6148,31.9868 L9.4628,29.9088 C9.5538,29.8878 9.6368,29.8418 9.7018,29.7758 L10.0408,29.4368 C10.0428,29.4348 10.0448,29.4338 10.0468,29.4328 C10.0488,29.4308 10.0488,29.4288 10.0508,29.4268 L28.1138,11.3488 C28.1198,11.3428 28.1278,11.3408 28.1348,11.3348 C28.1408,11.3278 28.1428,11.3198 28.1488,11.3128 L30.0688,9.3918 C30.0748,9.3858 30.0828,9.3848 30.0878,9.3788 C30.0938,9.3728 30.0958,9.3658 30.1008,9.3598 L31.0538,8.4058 C32.3128,7.1428 32.3128,5.0878 31.0528,3.8238 Z"/>
</svg>
